PathFileType	4	(X/Y/Z)	s10c0401.trc
DataRate	CameraRate	NumFrames	NumMarkers	Units	OrigDataRate	OrigDataStartFrame	OrigNumFrames
200	200	4	50	mm	200	750	2000
Frame#	Time	racr			lacr			c7			jug			rlel			rdr			llel			ldr			s2			lic			ric			lasi			rasi			rpsi			lpsi			rgt			lgt			rth1			rth2			rth3			rth4			rlfc			rmfc			rsh1			rsh2			rsh3			rsh4			rlmal			rmmal			rcal			rtoe			rmt5			lth1			lth2			lth4			lth3			llfc			lmfc			llmal			lmmal			lcal			lmt5			lsh1			lsh2			lsh3			lsh4			ltoe			SBIKE			LBIKE			RBIKE			
		X1	Y1	Z1	X2	Y2	Z2	X3	Y3	Z3	X4	Y4	Z4	X5	Y5	Z5	X6	Y6	Z6	X7	Y7	Z7	X8	Y8	Z8	X9	Y9	Z9	X10	Y10	Z10	X11	Y11	Z11	X12	Y12	Z12	X13	Y13	Z13	X14	Y14	Z14	X15	Y15	Z15	X16	Y16	Z16	X17	Y17	Z17	X18	Y18	Z18	X19	Y19	Z19	X20	Y20	Z20	X21	Y21	Z21	X22	Y22	Z22	X23	Y23	Z23	X24	Y24	Z24	X25	Y25	Z25	X26	Y26	Z26	X27	Y27	Z27	X28	Y28	Z28	X29	Y29	Z29	X30	Y30	Z30	X31	Y31	Z31	X32	Y32	Z32	X33	Y33	Z33	X34	Y34	Z34	X35	Y35	Z35	X36	Y36	Z36	X37	Y37	Z37	X38	Y38	Z38	X39	Y39	Z39	X40	Y40	Z40	X41	Y41	Z41	X42	Y42	Z42	X43	Y43	Z43	X44	Y44	Z44	X45	Y45	Z45	X46	Y46	Z46	X47	Y47	Z47	X48	Y48	Z48	X49	Y49	Z49	X50	Y50	Z50	
750	3.7500	643.440854	1263.104640	-84.135951	594.254041	1294.658385	-417.711507	604.092517	1329.506882	-249.427238	596.734021	1178.467856	-252.127075	506.483510	1066.330458	61.098765	622.937885	912.651231	-21.000750	464.199857	1051.097167	-504.387957	617.175396	912.230366	-423.866115	86.716078	1127.495683	-181.343757	226.620096	1145.259787	-354.316654	288.570865	1097.415913	-63.999329	238.667165	1052.531493	-338.133048	268.304117	1013.791968	-88.878022	145.227679	1165.331832	-123.490055	129.241272	1193.314912	-231.346802	157.763483	996.121982	-24.813704	118.441405	1040.385676	-399.727372	185.730284	860.678306	-8.028458	228.617086	785.020725	-26.488521	226.415332	700.323311	-38.699976	264.029020	796.068008	-33.473516	261.449619	599.376145	-59.683657	244.838748	593.332582	-171.677881	195.325431	504.404429	-26.745572	186.989766	417.139947	-40.369415	138.248734	345.769864	-42.810877	215.259118	410.074154	-66.000597	99.891638	252.382933	-56.548679	119.495775	260.335278	-138.385626	43.002404	250.952319	-103.828825	259.820378	141.274397	-102.748523	174.428752	147.055150	-38.880363	214.506234	958.807253	-430.132774	298.936197	937.871606	-427.134447	316.169368	967.492497	-413.123611	363.103243	877.537232	-438.069109	449.690703	807.730623	-430.262459	460.611846	790.939013	-303.502310	122.304062	620.882728	-383.781907	140.949398	617.980518	-303.063211	58.704456	628.521939	-333.497789	165.519633	489.266190	-400.986654	338.476070	753.592727	-444.704308	284.830043	688.988355	-422.213300	200.065087	660.980898	-407.581035	304.531891	668.880060	-394.882216	249.718573	461.874998	-347.146201	-218.081600	833.668005	-213.599259	-104.002910	80.455878	-418.391800	-104.010609	80.390515	-18.305458	
751	3.7550	642.975948	1263.560950	-85.687543	594.991591	1293.728093	-419.344461	604.259606	1329.248242	-251.412383	596.763488	1178.011162	-253.612109	506.371642	1066.852325	59.987480	622.938001	912.570773	-21.244653	463.997271	1050.457674	-505.693279	617.149318	912.345613	-424.140993	86.424782	1127.396291	-181.551958	226.421976	1144.889169	-355.277700	288.806163	1097.769533	-65.081686	238.605028	1052.230681	-338.900951	268.525703	1013.915790	-89.521817	145.200652	1165.262204	-123.944425	129.215914	1193.250671	-232.154979	157.767581	996.300752	-25.492140	118.437895	1039.873122	-400.239580	185.148133	860.838607	-8.399750	227.768251	784.962814	-26.684095	225.278869	700.282471	-38.822087	263.181103	795.952555	-33.664648	259.935852	599.226590	-59.689669	243.892467	592.996288	-171.575125	193.109145	504.520408	-26.562012	184.835978	417.183125	-40.261349	135.873545	345.953265	-42.724434	213.205131	410.073844	-65.792769	97.546528	252.476729	-56.538809	117.169669	260.477839	-138.131964	40.654978	251.155094	-103.663949	257.093415	140.702013	-102.712274	171.642946	146.940048	-38.762298	214.619532	958.218926	-430.115642	299.184437	937.897652	-427.897591	316.291277	967.769891	-414.622644	363.414843	877.627163	-439.057346	450.525325	808.349726	-431.271543	461.730956	791.928428	-305.245307	123.881359	620.449411	-383.811184	143.504190	617.900887	-303.196349	60.028570	627.730379	-333.556047	168.100182	489.459625	-401.181426	339.624881	753.739423	-445.412780	286.217094	688.988637	-422.539671	201.590763	660.746672	-407.851660	305.922305	669.083012	-395.257721	252.582144	462.943466	-347.269965	-218.099171	833.662423	-213.628345	-103.996400	80.474696	-418.383145	-103.986250	80.387309	-18.320977	
752	3.7600	642.457419	1264.225304	-87.466759	595.795257	1292.869395	-421.356491	604.493181	1329.152475	-253.267716	596.779305	1177.738571	-255.129955	506.189922	1067.488749	58.694985	622.911742	912.429851	-21.580725	463.948805	1049.785886	-507.140130	617.070580	912.337381	-424.457678	86.506950	1127.662710	-182.249564	226.223121	1144.741317	-356.242931	289.113237	1098.190451	-66.191969	238.616711	1052.071274	-339.812609	268.795691	1014.081763	-90.114201	145.445875	1165.560404	-124.787757	129.345792	1193.408588	-233.125710	157.797606	996.525116	-26.150450	118.453422	1039.520821	-400.799946	184.581850	861.067041	-8.765262	226.888560	785.021641	-26.906898	223.981282	700.299428	-38.985063	262.331151	795.839186	-33.852575	258.121043	599.107891	-59.684861	242.735323	592.832786	-171.591293	191.220744	504.562213	-26.762744	182.545702	417.371957	-40.125275	133.494449	346.124374	-42.665595	210.995776	410.021720	-65.613345	95.125702	252.674345	-56.334460	114.777188	260.672674	-137.809662	38.368022	251.712633	-103.624481	254.312790	140.286352	-102.691072	168.881932	146.758494	-38.768856	214.765159	957.879546	-430.662202	299.383453	937.839193	-428.690977	316.523970	967.744966	-415.626925	363.742997	877.677453	-439.975725	451.211738	808.838894	-432.237964	462.935939	792.904036	-306.015732	125.331898	620.089329	-383.822632	145.116776	617.871669	-303.310043	61.265301	626.689035	-333.444165	170.607893	489.911944	-401.484411	340.629515	753.792497	-446.019754	287.428636	689.012299	-422.885316	202.981388	660.436204	-408.104866	307.276514	669.284006	-395.515281	255.499060	464.191079	-347.421906	-218.103591	833.655536	-213.624859	-103.998975	80.432254	-418.360507	-103.981775	80.373723	-18.312875	
753	3.7650	642.055404	1264.837277	-89.130360	596.638997	1292.097281	-423.516466	604.739398	1329.118433	-255.256521	596.871459	1177.579714	-256.579742	506.125922	1068.087077	57.478772	622.947652	912.366229	-21.927350	463.918582	1049.255961	-508.581590	617.004580	912.249416	-424.820820	86.477627	1128.289777	-182.930177	226.163222	1144.806861	-357.481719	289.473560	1098.762364	-67.224385	238.660099	1052.009006	-340.614050	269.096785	1014.333724	-90.769670	145.645000	1166.131330	-125.624299	129.392534	1193.539391	-233.941644	157.845981	996.882737	-26.823092	118.533866	1039.199223	-401.379296	183.976206	861.521953	-9.138665	225.877636	785.121952	-27.235959	222.579328	700.406582	-39.172099	261.409088	795.807725	-34.101026	256.142928	599.097087	-59.765029	241.375421	592.627441	-171.578871	188.978727	504.786675	-26.810866	180.190480	417.545744	-40.078775	130.983780	346.444905	-42.594140	208.793929	410.041760	-65.417365	92.777862	252.876482	-56.278318	112.434743	260.917221	-137.696783	36.124455	252.283202	-103.525975	251.509524	139.831858	-102.655006	166.035650	146.651148	-38.729310	214.959781	957.573792	-431.249895	299.619930	937.693245	-429.572484	316.701542	967.668093	-416.633486	363.996488	877.627475	-440.809768	451.831115	809.301941	-433.204089	464.005171	793.934343	-306.822328	126.691659	619.541571	-383.812056	146.434560	617.713762	-303.352885	62.353004	625.720604	-333.579182	173.149109	490.045758	-401.795256	341.492469	753.845404	-446.601188	288.574187	688.942280	-423.247859	204.176524	660.095231	-408.394184	308.454308	669.414106	-395.743616	258.331251	465.310932	-347.568001	-218.129043	833.646329	-213.622067	-103.993875	80.464360	-418.385071	-104.004116	80.369225	-18.321713	
